<svg width="40" height="32" viewBox="0 0 40 32" fill="none" xmlns="http://www.w3.org/2000/svg">
<g clip-path="url(#clip0)">
<path d="M13.2825 0.00973618L13.2773 0H0.53418V0.415005C1.65245 0.495024 2.90879 1.06003 4.39322 3.27653L20.2396 30.7353L25.8185 21.5973L13.3606 0.00973618H13.2825Z" fill="white"/>
<path d="M11.0592 29.3837C13.5892 26.8526 13.5892 22.7489 11.0592 20.2179C8.5292 17.6868 4.4273 17.6868 1.89733 20.2179C-0.632644 22.7489 -0.632644 26.8526 1.89733 29.3837C4.4273 31.9147 8.5292 31.9147 11.0592 29.3837Z" fill="white"/>
<path d="M37.7649 0.00976562H28.3662V5.403V30.7353H37.7649V5.403H37.7673V3.97422C37.7673 1.06553 37.673 0.441809 39.9999 0.439679V0.00976562H37.7649Z" fill="white"/>
</g>
<defs>
<clipPath id="clip0">
<rect width="40" height="31.2821" fill="white"/>
</clipPath>
</defs>
</svg>
