<svg width="31" height="26" viewBox="0 0 31 26" fill="none" xmlns="http://www.w3.org/2000/svg">
<path fill-rule="evenodd" clip-rule="evenodd" d="M12.1 24.1429C10.8333 25.381 9.33333 26 7.6 26C6.13333 26 4.93333 25.6905 4 25.0714C3.06667 24.4524 2.3 23.6614 1.7 22.6984C0.966667 21.5979 0.5 20.3942 0.3 19.0873C0.1 17.7804 0 16.7143 0 15.8889C0 12.5185 0.833333 9.45767 2.5 6.70635C4.16667 3.95503 6.76667 1.71958 10.3 0L11.2 1.85714C9.13333 2.75132 7.35 4.16138 5.85 6.0873C4.35 8.01323 3.6 9.97355 3.6 11.9683C3.6 12.7937 3.7 13.5159 3.9 14.1349C4.96667 13.2407 6.2 12.7937 7.6 12.7937C9.33333 12.7937 10.8333 13.3783 12.1 14.5476C13.3667 15.7169 14 17.3333 14 19.3968C14 21.3228 13.3667 22.9048 12.1 24.1429ZM29.1 24.1429C27.8333 25.381 26.3333 26 24.6 26C23.1333 26 21.9333 25.6905 21 25.0714C20.0667 24.4524 19.3 23.6614 18.7 22.6984C17.9667 21.5979 17.5 20.3942 17.3 19.0873C17.1 17.7804 17 16.7143 17 15.8889C17 12.5185 17.8333 9.45767 19.5 6.70635C21.1667 3.95503 23.7667 1.71958 27.3 0L28.2 1.85714C26.1333 2.75132 24.35 4.16138 22.85 6.0873C21.35 8.01323 20.6 9.97355 20.6 11.9683C20.6 12.7937 20.7 13.5159 20.9 14.1349C21.9667 13.2407 23.2 12.7937 24.6 12.7937C26.3333 12.7937 27.8333 13.3783 29.1 14.5476C30.3667 15.7169 31 17.3333 31 19.3968C31 21.3228 30.3667 22.9048 29.1 24.1429Z" fill="black"/>
</svg>
